# xmcd
#
# Track frame offsets:
#	150
#	11875
#	24100
#	35162
#	47200
#	60387
#	69600
#	80700
#	92837
#	104825
#	116850
#	128962
#	139562
#	149525
#	161350
#	172825
#
# Disc length: 2459
#
# Revision: 1
# Processed by: cddbd v1.5.1PL0 Copyright (c) Steve Scherf et al.
# Submitted via: audiograbber 1.83.01
# Normalized: r0:DSETVAR1
#
DISCID=e4099910
DTITLE=Various Artist - The Best Of The West Vol.2
DYEAR=1989
DGENRE=Country
TTITLE0=Kitty Wells - Amigo's Guitar
TTITLE1=Tommy Cash - Six White Horses
TTITLE2=Jean Shepard - Satisfield Mind
TTITLE3=Pee Wee King - Silver And Gold
TTITLE4=Ferlin Husky - Country Music Is Here To Stay
TTITLE5=Bobby Helms - Jingel Bell Rock
TTITLE6=FAron Young - Country Girl
TTITLE7=Faron Young - Sweet Dreams
TTITLE8=Hank Thompson - The Wild Side Of Life
TTITLE9=Frankie Laine - High Noon
TTITLE10=Pee Wee King - Bimbo
TTITLE11=Marvin Rainwater - Gonna Find Me A Bluebird
TTITLE12=Kitty Wells - I Can't Stop Loving You
TTITLE13=Warner Mack - Is It Wrong
TTITLE14=Henson Cargill - Skip A Rope
TTITLE15=Ernie Ashworth - Talk Back Trembling Lips
EXTD=
EXTT0=
EXTT1=
EXTT2=
EXTT3=
EXTT4=
EXTT5=
EXTT6=
EXTT7=
EXTT8=
EXTT9=
EXTT10=
EXTT11=
EXTT12=
EXTT13=
EXTT14=
EXTT15=
PLAYORDER=
